<svg xmlns="http://www.w3.org/2000/svg" viewBox="0 0 200 200">
  <path d="M102 10a92 92 0 0 0-92 92 92 92 0 0 0 92 92 92 92 0 0 0 92-92 92 92 0 0 0-92-92zm-2 28a62 62 0 0 1 63 62 62 62 0 0 1-63 63 62 62 0 0 1-62-63 62 62 0 0 1 62-62z"/>
  <path fill="#fff" d="M101 21a80 80 0 0 0-50 18l5 4a72 72 0 0 1 44-15 72 72 0 0 1 45 15l5-5a80 80 0 0 0-49-17zm61 29-5 5a72 72 0 0 1 16 45 72 72 0 0 1-15 45l5 6a80 80 0 0 0 18-50 80 80 0 0 0-19-51zM39 51a80 80 0 0 0-18 50 80 80 0 0 0 17 49l5-5a72 72 0 0 1-15-45 72 72 0 0 1 15-44l-4-5zm16 106-5 5a80 80 0 0 0 51 19 80 80 0 0 0 50-18l-6-5a72 72 0 0 1-45 15 72 72 0 0 1-45-16z"/>
  <circle cx="100.5" cy="100.5" r="34.5"/>
  <path fill="#fff" d="M96 0v89l4 4 4-4V0h-8zM0 96v8h89l4-4-4-4H0zm111 0-4 4 4 4h89v-8h-89zm-11 11-4 4v89h8v-89l-4-4z"/>
</svg>
